PathFileType	4	(X/Y/Z)	/Users/visionmauri/Downloads/Videos/OAW06-top_Sports2D/OAW06-top_Sports2D_px_person00.trc
DataRate	CameraRate	NumFrames	NumMarkers	Units	OrigDataRate	OrigDataStartFrame	OrigNumFrames
30.0	30.0	4	22	m	30.0	1329	2127
Frame#	Time	Hip			RHip			RKnee			RAnkle			RBigToe			RSmallToe			RHeel			LHip			LKnee			LAnkle			LBigToe			LSmallToe			LHeel			Neck			Head			Nose			RShoulder			RElbow			RWrist			LShoulder			LElbow			LWrist			
		X1	Y1	Z1	X2	Y2	Z2	X3	Y3	Z3	X4	Y4	Z4	X5	Y5	Z5	X6	Y6	Z6	X7	Y7	Z7	X8	Y8	Z8	X9	Y9	Z9	X10	Y10	Z10	X11	Y11	Z11	X12	Y12	Z12	X13	Y13	Z13	X14	Y14	Z14	X15	Y15	Z15	X16	Y16	Z16	X17	Y17	Z17	X18	Y18	Z18	X19	Y19	Z19	X20	Y20	Z20	X21	Y21	Z21	X22	Y22	Z22
1329	44.32083725305739	591.9747922596771	1335.8728682745243	0.0	650.6066754233135	1340.1314230730418	0.0	647.2710892294782	1559.134982106904	0.0	639.0849268448274	1789.2295584598298	0.0	632.6107943837967	1813.698727814568	0.0	668.6529540374099	1825.8582874671101	0.0	630.205591469775	1827.7876477882196	0.0	533.9082380162376	1339.8141594651463	0.0	544.3886296387795	1570.6222268863137	0.0	552.176119902072	1802.994234877218	0.0	561.2150994405109	1811.32327413893	0.0	524.6748225136577	1824.4834214592597	0.0	555.3198158629784	1844.7401835203968	0.0	594.2577112321554	987.729199855205	0.0	592.793284693749	834.9229590512243	0.0	591.8142770157802	921.8870108303533	0.0	698.0019228703151	1048.2233044392992	0.0	715.5495737179969	1216.5253238027512	0.0	727.839500472692	1341.8587941590033	0.0	492.14919290885547	1049.7003155108996	0.0	461.45611359986657	1213.2090255178734	0.0	449.3465596939409	1344.0550449290718	0.0
1330	44.35418626528693	591.2251916539806	1330.591990541983	0.0	648.9009492075443	1335.548530964537	0.0	643.0989793869544	1549.5960756097402	0.0	632.7578914510104	1772.9089088317126	0.0	624.9714673960135	1797.7157321740788	0.0	660.2437141840907	1807.0920002285095	0.0	624.2842823951802	1809.503930255762	0.0	533.6348686618398	1335.8344720459143	0.0	544.0907091359554	1568.5601297904218	0.0	553.8163524484329	1803.2920118191448	0.0	562.1086925665111	1806.802068101242	0.0	526.0329810869274	1826.0547370691004	0.0	556.608354131992	1845.4557100318477	0.0	592.3908926490913	984.4756113823613	0.0	590.6886261472484	834.6223942942488	0.0	590.5769651135207	920.2548624363851	0.0	695.5562820068989	1045.0125339892606	0.0	712.7047690145135	1211.0998858768562	0.0	726.4641456257176	1337.070914603071	0.0	490.65588469068666	1045.2155025924776	0.0	460.5818838650502	1207.0496392464563	0.0	449.4775238433531	1334.809293332393	0.0
1331	44.38753527751647	590.2860672233298	1324.9142538905621	0.0	647.7076974200082	1330.904746271092	0.0	639.2863617153602	1538.6615326045867	0.0	627.6698920958819	1757.933339464934	0.0	617.7773982704717	1779.8530924334225	0.0	653.0181735538349	1786.891583083304	0.0	619.6886745941651	1795.5368562944473	0.0	533.7386058402516	1331.8159653133614	0.0	543.9461769903965	1565.2493650122894	0.0	554.7018690400762	1803.8662299909108	0.0	562.7230442644028	1799.6331434370493	0.0	527.0952362098246	1824.758155256357	0.0	557.9726787601454	1845.912327311101	0.0	590.4904661941463	982.1477739651615	0.0	589.0495135982842	834.3594026188989	0.0	589.1079342197083	918.6966187700241	0.0	693.0125381244504	1041.178273266155	0.0	710.482604755562	1206.1088729028504	0.0	724.5616216084784	1332.917799758445	0.0	489.6457617466488	1042.01531275255	0.0	460.3201621366729	1203.272548406693	0.0	451.14567285680135	1326.304594949623	0.0
1332	44.420884289746006	589.2764095428435	1319.9296304259676	0.0	646.7263119992186	1326.2737616716743	0.0	635.7098871412247	1526.2001172002801	0.0	623.4203925106112	1741.8211637838403	0.0	612.811534693541	1755.5181746879657	0.0	647.4309525233567	1760.4826637842314	0.0	615.1536038332033	1780.4232031412603	0.0	533.8100850897644	1327.5138326826336	0.0	544.2622958515587	1561.440825640142	0.0	554.8561168751651	1805.5288889283763	0.0	563.0876744366359	1795.0702025409867	0.0	527.4393875467532	1824.103673865246	0.0	558.34389287748	1847.2707876540042	0.0	588.9900441720517	980.1206231927481	0.0	588.2807575031936	833.5201673832221	0.0	588.269247443261	916.615491362478	0.0	690.7943321230226	1037.197635446395	0.0	708.8904674256703	1201.7396402788745	0.0	722.4860906225913	1328.316429373991	0.0	489.2784513593563	1039.9755464630625	0.0	460.7829848613571	1200.206621969658	0.0	453.33174760873794	1318.2104975309326	0.0
